<?xml version="1.0" encoding="UTF-8" standalone="no"?>
<svg
      xmlns:dc="http://purl.org/dc/elements/1.1/"
      xmlns:cc="http://creativecommons.org/ns#"
      xmlns:rdf="http://www.w3.org/1999/02/22-rdf-syntax-ns#"
      xmlns:svg="http://www.w3.org/2000/svg"
      xmlns="http://www.w3.org/2000/svg"
      xmlns:sodipodi="http://sodipodi.sourceforge.net/DTD/sodipodi-0.dtd"
      xmlns:inkscape="http://www.inkscape.org/namespaces/inkscape"
      version="1.1"
      viewBox="0 0 185.31 251.89"
      id="svg958"
      sodipodi:docname="face.svg"
      inkscape:version="0.92.4 (5da689c313, 2019-01-14)">
     <metadata
           id="metadata964">
          <rdf:RDF>
               <cc:Work
                     rdf:about="">
                    <dc:format>image/svg+xml</dc:format>
                    <dc:type
                          rdf:resource="http://purl.org/dc/dcmitype/StillImage" />
               </cc:Work>
          </rdf:RDF>
     </metadata>
     <defs
           id="defs962" />
     <sodipodi:namedview
           pagecolor="#ffffff"
           bordercolor="#666666"
           borderopacity="1"
           objecttolerance="10"
           gridtolerance="10"
           guidetolerance="10"
           inkscape:pageopacity="0"
           inkscape:pageshadow="2"
           inkscape:window-width="960"
           inkscape:window-height="1043"
           id="namedview960"
           showgrid="false"
           inkscape:zoom="2.392"
           inkscape:cx="70.79"
           inkscape:cy="124.5"
           inkscape:window-x="1920"
           inkscape:window-y="0"
           inkscape:window-maximized="0"
           inkscape:current-layer="svg958" />
     <path
           transform="translate(-56.6,-25.84)"
           d="M 66.8,144.2 C 64.46,77.97 89.26,31.08 147.5,31.85 c 81.5,1.07 80.7,46.08 80.7,112.35 0,5.1 8.4,3.8 7.7,19 -2.3,19.4 -9.5,14.6 -10.4,19.8 -9.3,51.1 -40.7,88.7 -78,88.7 -37.7,0 -69.45,-38.5 -78.26,-90.6 -0.82,-4.8 -9.68,-1.1 -10.24,-19 -1.35,-16.3 7.87,-15.8 7.8,-17.9 z"
           id="path938"
           inkscape:connector-curvature="0"
           style="fill:#ffdfbf;fill-rule:evenodd"
           sodipodi:nodetypes="scsccsccs" />
     <path
           transform="translate(-56.6,-25.84)"
           d="M 228.3,144.1 C 228.2,77.93 229,32.91 147.5,31.85 99.49,31.22 73.96,61.22 67.17,109.4 l 11.37,-7.9 m 0,0 c 11.12,-7.54 29.96,-16.43 54.76,-16.8 59.3,-0.95 81.3,5.52 81.7,59.8 0.1,10.4 -0.6,22.6 -2,36.8 -1.9,18.6 -6.1,24.6 -28.4,39.7 -12.1,8.2 14.8,-26 -46.4,-27.4 -45.34,0.8 -28.3,26.2 -40.78,19.3 -7.94,-5.7 -10.74,-16.4 -15.62,-34.8 0.53,1.6 -5.85,-27.1 -3.26,-76.6 l -13.04,7.9 3.82,90.8 c 1.68,15.7 37.58,72.7 77.08,73 37.3,0 69.9,-39.1 79.1,-90.2 l 2.8,-38.9"
           id="path940"
           inkscape:connector-curvature="0"
           style="fill:#d0b57b;fill-rule:evenodd"
           sodipodi:nodetypes="cccccccccccccscccc" />
     <path
           transform="translate(-56.6,-25.84)"
           d="m 146.1,31.84 h 1.4 c 81.5,1.07 80.7,46.08 80.7,112.36 0,5.1 8.4,3.8 7.7,19 -2.3,19.4 -9.5,14.6 -10.4,19.8 -9.3,51.1 -40.7,88.7 -78,88.7 -37.7,0 -69.45,-38.5 -78.26,-90.6 -0.82,-4.8 -9.62,-2.5 -10.18,-20.3 -1.34,-16.4 7.76,-11.8 7.76,-16.7 0,-65.67 22.11,-112.29 79.28,-112.29 m 0,-6 v 0 c -29.3,0 -51.6,11.54 -66.13,34.3 C 67.3,80 60.86,108.1 60.8,143.7 v 0 c -2.54,3 -8.7,5.3 -7.76,17.4 0.4,12.1 6.48,18.2 10.35,21.6 9.65,56 44.21,95 84.11,95 19.9,0 38.6,-9.4 54,-27.2 14.4,-16.6 24.9,-39.8 29.7,-65.5 v 0 c 4.2,-2.5 8.8,-6.5 10.5,-21.1 v -0.2 -0.2 c 0.6,-11.5 -3.3,-16.1 -7,-19.6 l -0.6,-0.5 v -1 c 0,-33 0,-61.44 -10.7,-82.09 -12,-23 -36.1,-33.89 -75.9,-34.41 z"
           id="path942"
           inkscape:connector-curvature="0"
           style="fill:#303030"
           sodipodi:nodetypes="ccsccsccsccccccccsccccccccsccc" />
     <path
           d="m 75.71,157.5 c 0,0 4.28,4.2 12.84,4 8.56,-0.3 12.55,-5.3 12.55,-5.3 0,0 -3.65,8.2 -11.56,8.9 -7.91,0.6 -13.83,-7.6 -13.83,-7.6 z"
           id="path944"
           inkscape:connector-curvature="0"
           style="fill:#bfa78f;fill-rule:evenodd" />
     <g
           id="g952"
           transform="translate(16)">
          <ellipse
                class="eye"
                cx="44.24"
                cy="115.6"
                rx="28.15"
                ry="35.97"
                id="ellipse946"
                style="fill:#ffffff" />
          <ellipse
                class="eye"
                cx="104.5"
                cy="115.6"
                rx="28.15"
                ry="35.97"
                id="ellipse948"
                style="fill:#ffffff" />
          <circle
                id="retina-left"
                class="retina"
                cx="43.9"
                cy="121.7"
                r="10.5"
                style="fill:#303030" />
          <circle
                id="retina-right"
                class="retina"
                cx="104.6"
                cy="121.7"
                r="10.5"
                style="fill:#303030" />
     </g>
     <path
           d="m 90.14,210.8 c -16.92,0 -29.43,-4.4 -29.43,-18.4 0,-4.2 4.12,-7.7 9.21,-7.7 h 39.48 c 3.6,0 6.5,2.5 6.5,5.5 v 7.2 c 0.1,11.2 -12.2,13.4 -25.76,13.4 z"
           id="path954"
           inkscape:connector-curvature="0"
           style="fill:#2d251d;fill-rule:evenodd" />
     <path
           d="M 109.4,184.7 H 69.9 c -5.09,0 -9.21,3.5 -9.21,7.7 v 0.2 c 7.57,2.3 17.6,3.2 29,3.2 9.87,0 19.21,-0.5 26.21,-2.4 v -3.2 c 0,-3 -2.9,-5.5 -6.5,-5.5 z"
           id="path956"
           inkscape:connector-curvature="0"
           style="fill:#ffffff" />
</svg>
